<svg width="32" height="32" xmlns="http://www.w3.org/2000/svg">
 <title/>

 <g>
  <title>background</title>
  <rect fill="none" id="canvas_background" height="402" width="582" y="-1" x="-1"/>
 </g>
 <g>
  <title>Layer 1</title>
  <path fill="#ffffff" id="svg_1" d="m29,8l-26,0a1,1 0 0 0 -1,1l0,14a1,1 0 0 0 1,1l10,0a1,1 0 0 0 1,-0.83l0.66,-4a1.36,1.36 0 0 1 1.34,-1.17a1.37,1.37 0 0 1 1.36,1.26l0.66,3.9a1,1 0 0 0 0.98,0.84l10,0a1,1 0 0 0 1,-1l0,-14a1,1 0 0 0 -1,-1zm-1,14l-8.15,0l-0.51,-3a3.36,3.36 0 0 0 -6.67,-0.06l-0.52,3.06l-8.15,0l0,-12l24,0l0,12z"/>
  <path fill="#ffffff" id="svg_2" d="m8.5,19a3.5,3.5 0 1 0 -3.5,-3.5a3.5,3.5 0 0 0 3.5,3.5zm0,-5a1.5,1.5 0 1 1 -1.5,1.5a1.5,1.5 0 0 1 1.5,-1.5z"/>
  <path fill="#ffffff" id="svg_3" d="m23.5,19a3.5,3.5 0 1 0 -3.5,-3.5a3.5,3.5 0 0 0 3.5,3.5zm0,-5a1.5,1.5 0 1 1 -1.5,1.5a1.5,1.5 0 0 1 1.5,-1.5z"/>
 </g>
</svg>