<?xml version="1.0" standalone="no"?>
<!DOCTYPE svg PUBLIC "-//W3C//DTD SVG 20010904//EN"
 "http://www.w3.org/TR/2001/REC-SVG-20010904/DTD/svg10.dtd">
<svg version="1.0" xmlns="http://www.w3.org/2000/svg"
 width="520.000000pt" height="520.000000pt" viewBox="0 0 520.000000 520.000000"
 preserveAspectRatio="xMidYMid meet">
<metadata>
Created by potrace 1.11, written by Peter Selinger 2001-2013
</metadata>
<g transform="translate(0.000000,520.000000) scale(0.100000,-0.100000)"
fill="#000000" stroke="none">
<path d="M830 4350 c-324 -70 -577 -288 -684 -588 -14 -40 -29 -97 -34 -125
-9 -65 -9 -2007 0 -2062 16 -93 21 -116 29 -121 5 -3 9 -13 9 -23 0 -18 77
-181 90 -191 3 -3 21 -26 40 -52 18 -27 38 -48 43 -48 5 0 7 -7 3 -15 -3 -8
-2 -14 3 -12 5 1 31 -19 58 -44 28 -25 67 -56 87 -68 20 -13 36 -25 36 -27 0
-3 -4 -2 -10 1 -6 3 -7 -1 -3 -10 5 -13 7 -14 14 -3 6 8 12 9 17 3 4 -5 24
-18 45 -27 20 -10 37 -23 37 -28 0 -6 4 -9 10 -5 5 3 26 -2 47 -11 21 -10 41
-16 45 -16 4 1 4 -6 1 -16 -5 -13 -4 -15 8 -6 13 9 30 11 44 4 3 -1 8 -3 13
-4 4 -1 12 -4 17 -7 6 -4 20 -5 33 -4 12 1 22 -2 22 -7 0 -5 4 -6 10 -3 5 3 7
0 4 -9 -6 -15 10 -15 74 -2 13 3 20 1 17 -5 -4 -5 -1 -9 4 -9 6 0 11 4 11 8 0
5 16 8 35 8 21 -1 31 -4 25 -10 -6 -6 -10 -13 -10 -17 0 -9 27 -6 36 4 4 4 13
2 21 -4 9 -9 13 -8 13 0 0 10 -13 15 -32 12 -5 0 -8 3 -8 8 0 6 9 9 20 8 11
-1 20 -5 20 -10 0 -5 7 -3 16 4 14 11 19 10 35 -10 11 -13 19 -19 19 -14 0 5
14 14 30 20 17 6 28 7 24 2 -3 -5 0 -9 7 -9 8 0 8 -5 -2 -17 -11 -16 -11 -16
1 -5 8 7 15 18 15 24 0 7 12 13 28 13 15 1 27 -2 27 -7 0 -5 6 -6 13 -1 18 11
38 13 31 2 -7 -12 10 -11 22 1 8 8 15 6 23 -4 9 -11 19 -12 36 -6 13 5 26 6
29 3 3 -4 6 -2 6 4 0 5 15 9 34 9 25 -1 32 -4 25 -13 -13 -15 9 -29 24 -14 7
7 14 7 24 0 8 -7 13 -8 13 -1 0 16 -26 22 -39 9 -9 -9 -11 -8 -6 5 7 17 45 21
45 5 0 -5 7 -3 16 4 14 11 19 10 35 -10 11 -13 19 -19 19 -14 0 5 14 14 30 20
17 6 28 7 24 2 -3 -5 0 -9 7 -9 8 0 8 -5 -2 -17 -11 -16 -11 -16 1 -5 8 7 15
18 15 24 0 7 12 13 28 13 15 1 27 -2 27 -7 0 -5 6 -6 12 -1 19 11 39 13 32 2
-7 -12 10 -11 22 1 8 8 15 6 23 -4 12 -14 17 -14 49 0 20 8 33 12 29 8 -3 -3
1 -13 9 -22 11 -10 18 -12 26 -4 8 8 17 7 33 -4 19 -12 22 -12 22 1 0 8 -3 12
-7 10 -3 -2 -12 0 -20 5 -9 5 -19 5 -27 -2 -10 -8 -12 -7 -7 5 6 16 44 20 44
4 0 -5 6 -4 14 2 10 9 17 7 27 -6 8 -9 9 -14 3 -10 -6 3 -11 0 -11 -8 0 -9 4
-11 11 -6 6 5 19 7 29 6 9 -2 15 1 11 6 -3 5 -9 7 -14 4 -4 -3 -10 1 -13 8 -3
7 3 13 14 13 10 0 16 -2 14 -4 -2 -3 3 -11 11 -20 11 -10 18 -12 26 -4 8 8 17
7 33 -4 19 -12 22 -12 22 1 0 8 -3 12 -7 10 -3 -2 -12 0 -20 5 -9 5 -19 5 -27
-2 -10 -8 -12 -7 -7 5 6 16 44 20 44 4 0 -5 6 -4 14 2 10 9 17 7 27 -6 8 -9 9
-14 3 -10 -6 3 -11 0 -11 -8 0 -9 4 -11 11 -6 6 5 19 7 29 6 9 -2 15 1 11 6
-3 5 -9 7 -14 4 -4 -3 -10 1 -13 8 -3 7 3 13 14 13 10 0 16 -2 14 -4 -2 -3 3
-11 11 -20 11 -10 18 -12 26 -4 8 8 17 7 33 -4 19 -12 22 -12 22 1 0 8 -3 12
-7 10 -3 -2 -12 0 -20 5 -9 5 -19 5 -27 -2 -10 -8 -12 -7 -7 5 6 16 44 20 44
4 0 -5 6 -4 14 2 10 9 17 7 27 -6 8 -9 9 -14 3 -10 -6 3 -11 0 -11 -8 0 -9 4
-11 11 -6 6 5 19 7 29 6 9 -2 15 1 11 6 -3 5 -9 7 -14 4 -4 -3 -10 1 -13 8 -3
7 3 13 14 13 10 0 16 -2 14 -4 -2 -3 3 -11 11 -20 11 -10 18 -12 26 -4 8 8 17
7 33 -4 19 -12 22 -12 22 1 0 8 -3 12 -7 10 -3 -2 -12 0 -20 5 -9 5 -19 5 -27
-2 -10 -8 -12 -7 -7 5 6 16 44 20 44 4 0 -5 6 -4 14 2 10 9 17 7 27 -6 8 -9 9
-14 3 -10 -6 3 -11 0 -11 -8 0 -11 4 -12 14 -4 12 11 17 6 14 -16 -1 -5 5 -2
13 8 8 11 12 25 10 31 -3 9 6 13 30 12 25 -1 32 -4 25 -13 -14 -15 8 -28 25
-14 9 7 16 7 24 -1 8 -8 12 -9 12 -1 0 17 -26 23 -39 10 -9 -9 -11 -8 -6 5 7
17 45 21 45 5 0 -5 7 -3 16 4 14 11 19 10 35 -10 11 -13 19 -19 19 -14 0 5 14
14 30 20 17 6 28 7 24 2 -3 -5 0 -9 7 -9 8 0 7 -5 -2 -17 -13 -16 -12 -17 3
-5 10 8 16 19 15 25 -1 5 10 11 26 12 15 1 27 -2 27 -7 0 -5 6 -6 13 -1 18 11
38 13 31 2 -7 -12 10 -11 22 1 8 8 15 6 23 -4 9 -11 19 -12 36 -6 13 5 26 6
29 3 3 -4 6 -2 6 4 0 5 15 9 34 9 25 -1 32 -4 25 -13 -14 -15 8 -28 25 -14 9
7 16 7 24 -1 8 -8 12 -9 12 -1 0 17 -26 23 -39 10 -9 -9 -11 -8 -6 5 7 17 45
21 45 5 0 -5 8 -3 17 4 9 8 14 9 10 2 -4 -6 -4 -13 0 -16 5 -2 3 -2 -4 -1 -7
2 -10 -3 -6 -12 11 -28 28 -13 24 22 -1 6 14 10 33 10 25 -1 32 -4 25 -13 -14
-15 8 -28 25 -14 9 7 16 7 24 -1 8 -8 12 -9 12 -1 0 17 -26 23 -39 10 -9 -9
-11 -8 -6 5 7 17 45 21 45 5 0 -5 7 -3 16 4 14 11 19 10 35 -10 11 -13 19 -19
19 -14 0 5 14 14 30 20 17 6 28 7 24 2 -3 -5 0 -9 7 -9 8 0 7 -5 -2 -17 -13
-16 -12 -17 3 -5 10 8 16 19 15 25 -1 5 10 11 26 12 15 1 27 -2 27 -7 0 -5 6
-6 13 -1 18 11 38 13 31 2 -7 -12 10 -11 22 1 8 8 15 6 23 -4 9 -11 19 -12 36
-6 13 5 26 6 29 3 3 -4 6 -2 6 4 0 5 15 9 34 9 25 -1 32 -4 25 -13 -14 -15 8
-28 25 -14 9 7 16 7 24 -1 8 -8 12 -9 12 -1 0 17 -26 23 -39 10 -9 -9 -11 -8
-6 5 7 17 45 21 45 5 0 -4 6 -5 13 0 14 9 41 14 33 6 -3 -3 2 -12 10 -21 11
-10 18 -12 26 -4 8 8 17 7 33 -4 19 -12 22 -12 22 1 0 8 -3 12 -7 10 -3 -2
-12 0 -20 5 -9 5 -19 5 -27 -2 -10 -8 -12 -7 -7 5 6 16 44 20 44 4 0 -5 6 -4
14 2 10 9 17 7 27 -6 8 -9 9 -14 3 -10 -6 3 -11 0 -11 -8 0 -9 4 -11 11 -6 6
5 19 7 29 6 9 -2 15 1 11 6 -3 5 -9 7 -14 4 -4 -3 -10 1 -13 8 -3 7 3 13 14
13 10 0 16 -2 14 -4 -2 -3 3 -11 11 -20 11 -10 18 -12 26 -4 8 8 17 7 33 -4
19 -12 22 -12 22 1 0 8 -3 12 -7 10 -3 -2 -12 0 -20 5 -9 5 -19 5 -27 -2 -10
-8 -12 -7 -7 5 6 16 44 20 44 4 0 -5 6 -4 14 2 10 9 17 7 27 -6 8 -9 9 -14 3
-10 -6 3 -11 0 -11 -8 0 -9 4 -11 11 -6 6 5 19 7 29 6 9 -2 15 1 11 6 -3 5 -9
7 -14 4 -4 -3 -10 1 -13 8 -3 7 3 13 14 13 10 0 16 -2 14 -4 -2 -3 3 -11 11
-20 11 -10 18 -12 26 -4 8 8 17 7 33 -4 19 -12 22 -12 22 1 0 8 -3 12 -7 10
-3 -2 -12 0 -20 5 -9 5 -19 5 -27 -2 -10 -8 -12 -7 -7 5 6 17 44 19 44 3 0 -5
10 -1 22 10 12 10 18 13 14 6 -4 -7 -1 -15 8 -18 9 -3 14 -9 12 -13 -3 -4 4
-7 14 -7 10 0 16 6 13 13 -3 7 -9 11 -13 8 -5 -3 -11 -2 -14 3 -9 16 29 9 42
-7 8 -9 10 -10 6 -2 -4 9 -2 12 7 9 8 -3 13 -12 11 -19 -1 -8 4 -6 12 5 10 12
23 17 36 13 11 -3 18 -1 14 4 -3 5 0 9 5 9 6 0 11 -4 11 -10 0 -5 5 -10 11
-10 8 0 9 4 0 13 -6 8 -7 17 -3 22 4 4 -3 2 -15 -4 -15 -8 -23 -8 -23 -1 0 5
7 10 15 10 8 0 15 6 15 13 1 6 6 2 13 -11 7 -12 16 -20 20 -16 4 4 3 12 -3 18
-6 8 -2 16 13 26 20 12 21 12 9 -3 -12 -14 -11 -20 3 -39 13 -17 16 -18 11 -4
-4 13 -2 17 7 13 8 -3 14 1 14 8 0 11 -5 11 -21 4 -19 -9 -19 -9 -4 4 10 8 14
18 10 22 -4 5 -2 5 5 2 6 -4 13 -2 15 5 3 7 7 5 11 -6 4 -10 3 -15 -3 -11 -6
4 -7 -1 -3 -11 4 -11 8 -13 11 -6 2 7 8 10 13 6 5 -3 12 1 15 9 3 9 16 14 30
12 13 -1 27 2 30 7 3 4 10 6 15 3 5 -3 6 1 2 10 -3 9 -15 21 -27 26 -17 8 -16
8 8 4 27 -6 28 -5 15 12 -13 16 -12 17 3 5 9 -8 15 -19 12 -27 -3 -7 -1 -16 5
-20 7 -4 8 0 4 11 -5 12 -3 15 6 9 10 -6 11 -3 2 13 -17 32 -13 37 9 12 11
-13 20 -18 20 -11 0 7 4 10 9 6 5 -3 13 0 16 6 4 5 13 8 21 5 8 -3 13 -2 13 2
-3 20 3 23 19 11 15 -13 16 -12 3 3 -7 10 -18 15 -25 12 -6 -3 -3 1 7 9 22 18
22 23 -3 23 -13 0 -19 -5 -16 -13 3 -7 1 -13 -5 -13 -6 0 -9 8 -7 17 2 12 14
18 42 19 28 2 36 0 27 -9 -6 -6 -11 -15 -11 -21 0 -5 10 4 23 22 19 25 26 29
36 19 10 -9 11 -8 6 6 -9 22 -21 22 -34 -1 -7 -12 -10 -13 -11 -3 0 8 8 20 18
28 16 14 16 14 -3 8 -16 -5 -17 -4 -8 6 10 10 16 9 28 -1 13 -11 18 -10 33 4
10 9 22 13 26 9 4 -5 7 -3 6 2 -5 24 1 34 18 29 13 -4 14 -3 4 4 -17 11 -15
24 4 35 8 4 14 12 14 18 0 5 -9 4 -20 -3 -11 -7 -18 -19 -15 -26 3 -8 0 -10
-7 -6 -7 5 -8 3 -3 -6 5 -9 4 -11 -3 -6 -8 4 -10 2 -6 -7 3 -8 0 -18 -7 -23
-9 -5 -10 -2 -6 9 4 10 1 17 -5 17 -7 0 -4 6 7 13 10 8 15 19 11 26 -5 7 -2
10 6 9 7 -2 12 2 11 8 -1 7 7 20 17 29 11 10 20 15 20 10 0 -4 -8 -14 -17 -22
-15 -12 -16 -14 -2 -10 9 3 21 1 26 -4 5 -5 8 2 7 19 -1 33 5 52 18 52 7 0 6
-5 -1 -14 -9 -11 -8 -15 4 -20 9 -3 13 -2 10 4 -3 5 -1 19 5 31 11 19 10 20
-12 14 -18 -5 -20 -4 -8 4 12 9 13 11 1 11 -8 0 -12 2 -9 5 3 3 17 1 32 -5 21
-8 27 -7 24 2 -3 7 -10 13 -15 13 -22 0 -24 14 -8 42 15 26 14 16 -2 -24 -4
-11 -3 -14 6 -9 6 4 20 2 29 -5 12 -10 11 -6 -3 10 -19 22 -19 23 -1 20 12 -3
20 2 21 14 2 9 -3 17 -10 17 -8 0 -17 5 -21 11 -4 7 0 9 12 5 11 -3 26 -1 34
4 13 9 13 12 -1 23 -16 13 -34 61 -18 51 5 -3 9 -11 9 -19 0 -7 7 -16 16 -19
10 -4 13 -2 8 6 -4 6 1 17 11 25 11 7 14 13 9 13 -6 0 -15 -5 -21 -11 -7 -7
-12 -6 -17 6 -3 9 -2 14 2 11 5 -3 16 4 25 15 9 10 12 19 7 19 -6 0 -10 14
-10 30 0 17 -5 30 -12 30 -6 0 -9 3 -6 6 4 3 16 1 27 -5 17 -10 20 -9 15 4 -4
8 -12 15 -19 15 -14 0 -15 43 -2 48 16 5 17 1 6 -20 -6 -13 -8 -20 -4 -16 5 4
13 3 20 -2 8 -7 12 -5 12 5 0 8 -4 12 -9 9 -5 -4 -9 0 -7 7 4 32 -2 51 -14 46
-9 -3 -13 4 -12 23 0 23 3 27 17 19 14 -7 16 -6 12 6 -4 8 -10 15 -14 15 -4 0
-10 7 -14 15 -5 13 -2 14 15 4 11 -6 23 -8 27 -5 3 3 0 6 -8 6 -10 0 -10 4 1
17 8 9 9 14 3 10 -14 -8 -14 64 -1 74 5 3 1 9 -8 12 -9 4 -13 3 -10 -3 3 -6 0
-10 -7 -10 -11 0 -10 -2 0 -9 11 -7 11 -9 0 -13 -10 -4 -14 2 -13 22 0 16 2
27 5 25 3 -2 14 3 25 11 10 8 14 14 7 14 -6 0 -9 6 -6 14 3 8 -3 16 -16 19
-18 5 -20 9 -11 26 13 23 14 34 3 27 -4 -2 -8 8 -7 24 0 15 3 26 7 23 11 -6
10 5 -1 26 -7 13 -6 18 3 18 8 0 12 -15 11 -44 -1 -24 3 -46 9 -50 6 -3 8 -3
4 2 -4 4 -2 15 5 23 9 13 9 14 0 8 -16 -9 -16 -1 -2 26 8 15 8 19 0 14 -15
-10 -14 7 2 23 6 8 7 11 1 8 -6 -4 -19 -1 -28 6 -15 11 -15 14 -1 32 16 20 16
20 6 0 -8 -18 -6 -21 12 -22 12 0 16 1 10 4 -7 3 -13 9 -13 14 0 6 4 8 8 5 5
-3 9 1 9 8 0 8 -9 13 -22 12 -17 -2 -21 3 -20 25 0 15 4 25 8 22 5 -3 6 -11 4
-17 -3 -7 0 -13 7 -13 8 0 11 15 9 44 -3 30 0 43 9 43 9 0 8 3 -2 10 -8 5 -19
10 -25 10 -5 0 -3 -5 5 -10 9 -6 10 -10 3 -10 -20 0 -23 16 -7 36 9 10 13 13
9 7 -4 -9 -1 -11 11 -6 15 5 15 7 0 15 -9 5 -20 7 -24 4 -4 -2 -8 8 -7 24 0
23 3 27 17 19 14 -7 16 -6 12 6 -4 8 -10 15 -14 15 -4 0 -10 7 -14 15 -5 13
-2 14 17 4 12 -6 19 -8 15 -4 -4 5 -2 15 5 23 9 13 9 14 0 8 -16 -9 -16 -1 -2
26 8 15 8 19 0 14 -6 -4 -11 -2 -11 4 0 7 -6 10 -13 7 -9 -3 -13 4 -12 23 0
24 3 27 18 18 10 -5 21 -7 25 -4 3 3 0 6 -6 6 -7 0 -12 5 -12 11 0 5 4 8 8 5
5 -3 9 1 9 8 0 7 -6 13 -13 13 -7 0 -11 -4 -8 -9 3 -4 1 -8 -4 -8 -6 0 -13 7
-16 16 -3 8 -2 12 4 9 6 -3 10 -2 10 4 0 5 -4 12 -10 16 -11 7 -2 35 12 35 7
0 6 -5 -1 -14 -8 -10 -8 -16 2 -24 11 -9 13 -3 10 30 -2 23 2 45 8 48 7 5 5 9
-6 13 -9 4 -13 3 -10 -3 3 -6 1 -10 -5 -10 -6 0 -9 -4 -5 -9 3 -5 2 -12 -3
-15 -4 -2 -8 8 -7 24 0 15 2 27 5 25 3 -2 14 3 25 11 10 8 14 14 7 14 -6 0 -9
6 -6 14 3 8 -3 16 -16 19 -18 5 -20 9 -11 26 13 23 14 34 3 27 -4 -2 -8 8 -7
24 0 15 3 26 7 23 11 -6 10 5 -1 26 -7 13 -6 18 3 18 8 0 12 -15 11 -44 -1
-24 3 -46 9 -50 6 -3 8 -3 4 2 -4 4 -2 15 5 23 9 13 9 14 0 8 -16 -9 -16 -1
-2 26 8 15 8 19 0 14 -15 -10 -14 7 2 23 6 8 7 11 1 8 -6 -4 -19 -1 -28 6 -15
11 -15 14 -1 32 16 20 16 20 6 0 -8 -18 -6 -21 12 -22 12 0 16 1 10 4 -7 3
-13 9 -13 14 0 6 4 8 8 5 5 -3 9 1 9 8 0 8 -9 13 -22 12 -17 -2 -21 3 -20 25
0 15 4 25 8 22 5 -3 6 -11 4 -17 -3 -7 0 -13 7 -13 8 0 11 15 9 44 -3 30 0 43
9 43 9 0 8 3 -2 10 -8 5 -19 10 -25 10 -5 0 -3 -5 5 -10 9 -6 10 -10 3 -10
-20 0 -23 16 -7 36 9 10 13 13 9 7 -4 -9 -1 -11 11 -6 15 5 15 7 0 15 -9 5
-20 7 -24 4 -4 -2 -8 8 -7 24 0 23 3 27 17 19 14 -7 16 -6 12 6 -4 8 -10 15
-14 15 -4 0 -10 7 -14 15 -5 13 -2 14 17 4 12 -6 19 -8 15 -4 -4 5 -2 15 5 23
9 13 9 14 0 8 -16 -9 -16 -1 -2 26 8 15 8 19 0 14 -6 -4 -11 -2 -11 4 0 7 -6
10 -13 7 -9 -3 -13 4 -12 23 0 24 3 27 18 18 10 -5 21 -7 25 -4 3 3 0 6 -6 6
-7 0 -12 5 -12 11 0 5 4 8 8 5 5 -3 9 1 9 8 0 7 -6 13 -13 13 -7 0 -11 -4 -8
-9 3 -4 1 -8 -4 -8 -6 0 -13 7 -16 16 -3 8 -2 12 4 9 6 -3 10 -2 10 4 0 5 -4
12 -10 16 -11 7 -2 35 12 35 7 0 6 -5 -1 -14 -8 -10 -8 -16 2 -24 11 -9 13 -3
10 33 -2 31 0 45 9 45 6 0 3 6 -8 14 -10 8 -21 12 -24 10 -2 -3 2 -9 10 -14 9
-6 10 -10 3 -10 -6 0 -15 5 -18 10 -9 15 14 40 31 33 8 -3 14 -1 14 5 0 6 -10
9 -23 8 -20 -2 -22 1 -21 38 0 23 -3 51 -7 63 -5 14 -4 25 3 29 6 4 8 3 5 -3
-3 -5 0 -10 7 -10 7 0 13 6 13 13 0 7 -4 11 -9 8 -4 -3 -8 0 -8 5 0 6 -5 10
-12 8 -8 -1 -12 9 -12 26 1 15 -3 27 -7 27 -5 0 -9 5 -9 11 0 5 4 8 8 5 4 -2
14 0 22 6 13 8 12 9 -2 5 -9 -3 -22 1 -28 9 -7 8 -9 14 -4 14 5 0 3 4 -5 9
-12 8 -13 12 -1 26 10 13 11 15 1 13 -8 -2 -24 17 -38 41 -14 24 -19 40 -11
35 10 -6 11 -5 1 7 -6 8 -11 18 -11 22 0 5 -4 12 -8 15 -4 4 -4 0 0 -8 4 -8 1
-7 -6 4 -7 10 -23 31 -36 47 -13 16 -20 34 -16 40 4 7 3 9 -4 5 -13 -8 -55 48
-44 59 4 5 2 5 -5 2 -6 -4 -22 5 -35 20 -13 16 -33 33 -44 40 -10 6 -18 17
-16 25 2 7 1 10 -3 6 -4 -4 -30 9 -57 29 -68 48 -190 107 -263 129 -151 44
-107 43 -1870 43 -1594 0 -1684 -1 -1765 -19z m4300 -1110 c0 -5 -5 -10 -11
-10 -8 0 -7 -6 2 -17 13 -16 12 -17 -3 -5 -9 8 -14 20 -11 28 6 16 23 19 23 4z
m-10 -220 c6 -11 8 -20 6 -20 -3 0 -10 9 -16 20 -6 11 -8 20 -6 20 3 0 10 -9
16 -20z m7 -317 c0 -7 -4 -13 -8 -13 -4 0 -9 6 -12 13 -3 8 0 14 7 14 7 0 13
-6 13 -14z m3 -263 c0 -5 -5 -10 -11 -10 -8 0 -7 -6 2 -17 13 -16 12 -17 -3
-5 -9 8 -14 20 -11 28 6 16 23 19 23 4z m-10 -220 c6 -11 8 -20 6 -20 -3 0
-10 9 -16 20 -6 11 -8 20 -6 20 3 0 10 -9 16 -20z m7 -317 c0 -7 -4 -13 -8
-13 -4 0 -9 6 -12 13 -3 8 0 14 7 14 7 0 13 -6 13 -14z m3 -103 c0 -5 -5 -10
-11 -10 -8 0 -7 -6 2 -17 13 -16 12 -17 -3 -5 -9 8 -14 20 -11 28 6 16 23 19
23 4z m-25 -300 c-3 -5 -13 -6 -21 -3 -12 4 -13 8 -3 14 15 9 32 2 24 -11z
m-15 -94 c0 -3 -4 -8 -10 -11 -5 -3 -10 -1 -10 4 0 6 5 11 10 11 6 0 10 -2 10
-4z m-196 -318 c-3 -5 -11 -8 -17 -7 -9 0 -8 2 1 6 6 2 10 9 7 13 -3 5 -13 6
-22 3 -15 -6 -16 -5 -3 9 13 14 16 14 26 -1 7 -9 10 -19 8 -23z m-79 -37 c-3
-6 -11 -11 -16 -11 -5 0 -4 6 3 14 14 16 24 13 13 -3z m-83 -60 c-8 -4 -13
-11 -13 -15 3 -20 0 -26 -10 -20 -8 4 -7 9 2 15 8 5 10 9 6 9 -5 0 -5 5 -2 10
3 6 12 10 18 10 8 0 8 -3 -1 -9z m37 -14 c-2 -1 -12 -9 -22 -16 -15 -12 -17
-12 -11 3 3 9 13 16 22 16 8 0 13 -1 11 -3z m-162 -66 c0 -11 -4 -18 -8 -15
-4 2 -12 -4 -18 -13 -6 -10 -11 -12 -11 -5 0 9 27 47 37 51 1 1 1 -8 0 -18z
m43 1 c0 -13 -12 -22 -22 -16 -10 6 -1 24 13 24 5 0 9 -4 9 -8z m-259 -71 c4
7 11 10 16 6 11 -12 -16 -25 -39 -19 -15 4 -17 7 -6 13 7 5 15 4 17 -2 2 -7 6
-6 12 2z m-3481 -5 c0 -2 -7 -7 -16 -10 -8 -3 -12 -2 -9 4 6 10 25 14 25 6z
m1650 -21 c7 -9 8 -15 2 -15 -5 0 -12 7 -16 15 -3 8 -4 15 -2 15 2 0 9 -7 16
-15z"/>
<path d="M5072 3791 c-11 -7 -11 -9 0 -14 9 -3 15 1 15 9 0 8 -1 14 -1 14 -1
0 -7 -4 -14 -9z"/>
<path d="M5096 3701 c-3 -5 2 -15 12 -22 15 -12 16 -12 5 2 -7 9 -10 19 -6 22
3 4 4 7 0 7 -3 0 -8 -4 -11 -9z"/>
<path d="M5110 3600 c0 -6 4 -9 9 -6 5 4 12 1 14 -4 3 -6 4 -5 3 2 -3 15 -26
23 -26 8z"/>
<path d="M5113 3565 c0 -8 4 -15 9 -15 4 0 8 4 8 9 0 6 -4 12 -8 15 -5 3 -9
-1 -9 -9z"/>
<path d="M5116 3528 c3 -4 11 -5 19 -1 21 7 19 12 -4 10 -11 0 -18 -5 -15 -9z"/>
<path d="M5110 3285 c0 -7 30 -13 34 -7 3 4 -4 9 -15 9 -10 1 -19 0 -19 -2z"/>
<path d="M5110 3126 c0 -2 7 -6 15 -10 8 -3 15 -1 15 4 0 6 -7 10 -15 10 -8 0
-15 -2 -15 -4z"/>
<path d="M5117 2757 c-3 -8 1 -14 8 -14 7 0 11 6 8 14 -3 7 -6 13 -8 13 -2 0
-5 -6 -8 -13z"/>
<path d="M5110 2485 c0 -7 30 -13 34 -7 3 4 -4 9 -15 9 -10 1 -19 0 -19 -2z"/>
<path d="M5110 2326 c0 -2 7 -6 15 -10 8 -3 15 -1 15 4 0 6 -7 10 -15 10 -8 0
-15 -2 -15 -4z"/>
<path d="M5117 1957 c-3 -8 1 -14 8 -14 7 0 11 6 8 14 -3 7 -6 13 -8 13 -2 0
-5 -6 -8 -13z"/>
<path d="M5110 1686 c0 -2 7 -6 15 -10 8 -3 15 -1 15 4 0 6 -7 10 -15 10 -8 0
-15 -2 -15 -4z"/>
<path d="M4975 1160 c-3 -5 -1 -10 4 -10 6 0 11 5 11 10 0 6 -2 10 -4 10 -3 0
-8 -4 -11 -10z"/>
<path d="M655 880 c3 -5 8 -10 11 -10 2 0 4 5 4 10 0 6 -5 10 -11 10 -5 0 -7
-4 -4 -10z"/>
<path d="M733 844 c0 -10 4 -11 10 -5 7 7 15 7 23 0 8 -7 14 -7 19 1 4 6 3 10
-2 9 -4 -1 -10 0 -13 1 -22 8 -37 5 -37 -6z"/>
<path d="M801 831 c-8 -5 -9 -11 -3 -15 5 -3 12 1 16 9 6 17 6 18 -13 6z"/>
<path d="M830 820 c0 -5 5 -10 11 -10 5 0 7 5 4 10 -3 6 -8 10 -11 10 -2 0 -4
-4 -4 -10z"/>
<path d="M923 813 c-21 -8 -15 -19 12 -19 19 0 22 3 13 13 -6 7 -11 13 -12 12
0 0 -7 -3 -13 -6z"/>
<path d="M975 811 c-8 -7 -6 -21 3 -21 5 0 16 6 26 13 16 12 16 13 -4 13 -11
0 -23 -2 -25 -5z"/>
<path d="M1107 813 c-3 -5 -1 -15 5 -23 8 -12 9 -12 4 3 -6 18 9 24 17 7 3 -6
4 -5 3 2 -3 15 -22 22 -29 11z"/>
<path d="M1250 805 c6 -8 19 -11 27 -8 12 5 14 3 8 -8 -7 -11 -6 -12 6 -3 8 6
23 10 34 8 10 -1 25 2 31 7 8 7 13 6 16 -1 1 -5 13 -12 26 -15 13 -2 20 0 17
6 -4 5 -10 7 -15 4 -4 -3 -13 2 -20 10 -10 12 -16 13 -26 4 -11 -9 -18 -8 -28
0 -10 8 -16 9 -21 1 -3 -6 -11 -8 -16 -5 -5 4 -18 8 -30 10 -17 3 -19 2 -9
-10z"/>
<path d="M1454 808 c-3 -5 -10 -6 -15 -3 -5 4 -9 2 -9 -4 0 -18 18 -21 25 -3
7 16 7 16 14 0 6 -17 7 -17 17 0 10 15 8 18 -8 18 -11 0 -22 -4 -24 -8z"/>
<path d="M1587 813 c-3 -5 -1 -15 5 -23 8 -12 9 -12 4 3 -6 18 9 24 17 7 3 -6
4 -5 3 2 -3 15 -22 22 -29 11z"/>
<path d="M1730 805 c6 -8 19 -11 27 -8 12 5 14 3 8 -8 -7 -11 -6 -12 6 -3 8 6
23 10 34 8 10 -1 25 2 31 7 8 7 13 6 16 -1 1 -5 13 -12 26 -15 13 -2 20 0 17
6 -4 5 -10 7 -15 4 -4 -3 -13 2 -20 10 -10 12 -16 13 -26 4 -11 -9 -18 -8 -28
0 -10 8 -16 9 -21 1 -3 -6 -11 -8 -16 -5 -5 4 -18 8 -30 10 -17 3 -19 2 -9
-10z"/>
<path d="M2588 797 c2 -10 5 -16 6 -15 1 2 7 10 13 18 10 13 8 16 -6 16 -13 0
-17 -6 -13 -19z"/>
<path d="M2707 813 c-3 -5 -1 -15 5 -23 8 -12 9 -12 4 3 -6 18 9 24 17 7 3 -6
4 -5 3 2 -3 15 -22 22 -29 11z"/>
<path d="M2850 805 c6 -8 19 -11 27 -8 12 5 14 3 8 -8 -7 -11 -6 -12 6 -3 8 6
23 10 34 8 10 -1 25 2 31 7 8 7 13 6 16 -1 1 -5 13 -12 26 -15 13 -2 20 0 17
6 -4 5 -10 7 -15 4 -4 -3 -13 2 -20 10 -10 12 -16 13 -26 4 -11 -9 -18 -8 -28
0 -10 8 -16 9 -21 1 -3 -6 -11 -8 -16 -5 -5 4 -18 8 -30 10 -17 3 -19 2 -9
-10z"/>
<path d="M3054 808 c-3 -5 -10 -6 -15 -3 -5 4 -9 2 -9 -4 0 -18 18 -21 25 -3
7 16 7 16 14 0 6 -17 7 -17 17 0 10 15 8 18 -8 18 -11 0 -22 -4 -24 -8z"/>
<path d="M3228 797 c2 -10 5 -16 6 -15 1 2 7 10 13 18 10 13 8 16 -6 16 -13 0
-17 -6 -13 -19z"/>
<path d="M3347 813 c-3 -5 -1 -15 5 -23 8 -12 9 -12 4 3 -6 18 9 24 17 7 3 -6
4 -5 3 2 -3 15 -22 22 -29 11z"/>
<path d="M3490 805 c6 -8 19 -11 27 -8 12 5 14 3 8 -8 -7 -11 -6 -12 6 -3 8 6
23 10 34 8 10 -1 25 2 31 7 8 7 13 6 16 -1 1 -5 13 -12 26 -15 13 -2 20 0 17
6 -4 5 -10 7 -15 4 -4 -3 -13 2 -20 10 -10 12 -16 13 -26 4 -11 -9 -18 -8 -28
0 -10 8 -16 9 -21 1 -3 -6 -11 -8 -16 -5 -5 4 -18 8 -30 10 -17 3 -19 2 -9
-10z"/>
<path d="M3694 808 c-3 -5 -10 -6 -15 -3 -5 4 -9 2 -9 -4 0 -18 18 -21 25 -3
7 16 7 16 14 0 6 -17 7 -17 17 0 10 15 8 18 -8 18 -11 0 -22 -4 -24 -8z"/>
<path d="M3826 812 c-2 -4 -1 -14 5 -22 6 -11 9 -12 9 -2 0 8 5 10 13 6 8 -5
8 -2 -2 9 -15 19 -18 20 -25 9z"/>
<path d="M4276 807 c3 -10 9 -15 12 -12 3 3 0 11 -7 18 -10 9 -11 8 -5 -6z"/>
<path d="M1182 801 c-11 -7 -10 -9 3 -14 9 -4 14 -3 10 2 -3 5 1 12 7 14 7 3
9 6 3 6 -5 0 -16 -3 -23 -8z"/>
<path d="M1662 801 c-11 -7 -10 -9 3 -14 9 -4 14 -3 10 2 -3 5 1 12 7 14 7 3
9 6 3 6 -5 0 -16 -3 -23 -8z"/>
<path d="M1910 802 c0 -5 7 -9 15 -9 8 0 12 4 9 9 -3 4 -9 8 -15 8 -5 0 -9 -4
-9 -8z"/>
<path d="M2782 801 c-11 -7 -10 -9 3 -14 9 -4 14 -3 10 2 -3 5 1 12 7 14 7 3
9 6 3 6 -5 0 -16 -3 -23 -8z"/>
<path d="M3422 801 c-11 -7 -10 -9 3 -14 9 -4 14 -3 10 2 -3 5 1 12 7 14 7 3
9 6 3 6 -5 0 -16 -3 -23 -8z"/>
</g>
</svg>
